<svg xmlns="http://www.w3.org/2000/svg" xmlns:xlink="http://www.w3.org/1999/xlink" width="500" zoomAndPan="magnify" viewBox="0 0 375 374.999991" height="500" preserveAspectRatio="xMidYMid meet" version="1.0"><path stroke-linecap="butt" transform="matrix(0.292969, 0, 0, 0.292969, 112.499997, -74.999995)" fill-opacity="1" fill="#ffffff" fill-rule="nonzero" stroke-linejoin="miter" d="M 450.453371 256.093332 C 449.346704 175.173327 399.813368 102.706656 324.00003 73.786654 C 247.586692 44.666653 157.493353 68.999987 105.81335 132.133325 C 54.400013 194.999995 46.613346 285.573334 88.493349 355.680005 C 130.293351 425.626676 212.22669 461.680012 292.040028 447.306677 C 383.040033 430.933343 448.173371 349.186671 450.386704 258.173332 C 450.453371 257.479999 450.466704 256.786666 450.453371 256.093332 Z M 119.053351 174.386661 C 152.760019 117.99999 220.22669 86.999989 285.000027 99.426656 C 354.400032 112.71999 405.426701 169.893327 413.826702 238.426665 L 318.413363 238.426665 C 310.146696 211.066663 286.413361 190.426662 255.786692 190.426662 C 226.133357 190.426662 200.640022 211.079996 192.680022 238.426665 L 97.733349 238.426665 C 100.173349 215.53333 107.280016 194.173328 119.053351 174.386661 Z M 286.133361 256.106666 C 284.133361 294.853335 225.453357 295.493335 225.453357 256.106666 C 225.453357 216.706663 284.173361 217.33333 286.133361 256.106666 Z M 310.133362 405.893342 C 246.853358 428.573343 175.000021 408.733342 132.293351 356.826672 C 122.626684 344.960004 114.85335 331.960004 108.97335 317.840003 C 103.080016 303.706669 99.333349 289.040001 97.733349 273.826667 L 192.600022 273.826667 C 200.506689 301.213335 226.293357 321.82667 255.786692 321.82667 C 286.453361 321.82667 310.146696 301.146668 318.413363 273.826667 L 413.853369 273.826667 C 406.613368 333.000004 367.533366 385.320007 310.133362 405.893342 Z M 310.133362 405.893342 " stroke="#ffffff" stroke-width="1" stroke-opacity="1" stroke-miterlimit="4"/><path stroke-linecap="butt" transform="matrix(0.292969, 0, 0, 0.292969, -74.999991, 112.499993)" fill-opacity="1" fill="#ffffff" fill-rule="nonzero" stroke-linejoin="miter" d="M 450.453329 256.093374 C 449.346662 175.173369 399.813326 102.706698 323.999988 73.786696 C 247.58665 44.666695 157.493311 69.000029 105.826641 132.133367 C 54.399971 195.000037 46.613304 285.573376 88.493307 355.680047 C 130.293309 425.626718 212.226648 461.680054 292.039986 447.306719 C 383.039991 430.933385 448.173329 349.186713 450.386662 258.173374 C 450.453329 257.480041 450.466662 256.786708 450.453329 256.093374 Z M 119.053308 174.373369 C 152.759977 118.000032 220.226648 87.000031 284.999985 99.426698 C 354.39999 112.720032 405.426659 169.893369 413.82666 238.426707 L 318.413321 238.426707 C 310.146654 211.066705 286.413319 190.426704 255.78665 190.426704 C 226.146648 190.426704 200.63998 211.080038 192.67998 238.426707 L 97.746641 238.426707 C 100.173307 215.533372 107.279974 194.173371 119.053308 174.373369 Z M 286.133319 256.093374 C 284.133319 294.853377 225.466648 295.493377 225.466648 256.093374 C 225.466648 216.693372 284.173319 217.333372 286.133319 256.093374 Z M 310.13332 405.893384 C 246.853316 428.573385 174.999979 408.733384 132.306643 356.813381 C 122.626642 344.960046 114.853308 331.960046 108.973308 317.840045 C 103.079974 303.706711 99.333307 289.040043 97.733307 273.813375 L 192.59998 273.813375 C 200.506647 301.213377 226.306648 321.813378 255.78665 321.813378 C 286.466652 321.813378 310.146654 301.133377 318.413321 273.813375 L 413.853327 273.813375 C 406.613326 333.000046 367.546657 385.320049 310.146654 405.893384 Z M 310.13332 405.893384 " stroke="#ffffff" stroke-width="1" stroke-opacity="1" stroke-miterlimit="4"/><path stroke-linecap="butt" transform="matrix(0.292969, 0, 0, 0.292969, 112.499997, 299.99998)" fill-opacity="1" fill="#ffffff" fill-rule="nonzero" stroke-linejoin="miter" d="M 450.453371 256.093416 C 449.346704 175.173411 399.813368 102.70674 324.00003 73.786738 C 247.586692 44.666737 157.493353 69.000071 105.81335 132.133409 C 54.400013 195.000079 46.613346 285.573418 88.493349 355.680089 C 130.293351 425.62676 212.22669 461.680096 292.040028 447.306761 C 383.040033 430.933427 448.173371 349.186755 450.386704 258.173416 C 450.453371 257.480083 450.466704 256.78675 450.453371 256.093416 Z M 119.053351 174.373411 C 152.760019 118.000075 220.22669 87.000073 285.000027 99.42674 C 354.400032 112.720074 405.426701 169.893411 413.826702 238.426749 L 318.413363 238.426749 C 310.146696 211.066747 286.413361 190.426746 255.786692 190.426746 C 226.133357 190.426746 200.640022 211.08008 192.680022 238.426749 L 97.733349 238.426749 C 100.173349 215.533414 107.280016 194.173413 119.053351 174.373411 Z M 286.133361 256.093416 C 284.133361 294.853419 225.453357 295.493419 225.453357 256.093416 C 225.453357 216.693414 284.173361 217.333414 286.133361 256.093416 Z M 310.133362 405.893426 C 246.853358 428.573427 175.000021 408.733426 132.293351 356.813423 C 122.626684 344.960088 114.85335 331.960088 108.97335 317.840087 C 103.080016 303.706753 99.333349 289.040085 97.733349 273.813417 L 192.600022 273.813417 C 200.506689 301.213419 226.293357 321.81342 255.786692 321.81342 C 286.453361 321.81342 310.146696 301.133419 318.413363 273.813417 L 413.853369 273.813417 C 406.613368 333.000088 367.533366 385.320091 310.133362 405.893426 Z M 310.133362 405.893426 " stroke="#ffffff" stroke-width="1" stroke-opacity="1" stroke-miterlimit="4"/><path stroke-linecap="butt" transform="matrix(0.292969, 0, 0, 0.292969, 299.999985, 112.499993)" fill-opacity="1" fill="#ffffff" fill-rule="nonzero" stroke-linejoin="miter" d="M 450.453413 256.093374 C 449.346746 175.173369 399.81341 102.706698 324.000072 73.786696 C 247.586734 44.666695 157.493395 69.000029 105.813392 132.133367 C 54.400055 195.000037 46.613388 285.573376 88.493391 355.680047 C 130.293393 425.626718 212.226732 461.680054 292.04007 447.306719 C 383.040075 430.933385 448.173413 349.186713 450.386746 258.173374 C 450.453413 257.480041 450.466746 256.786708 450.453413 256.093374 Z M 119.053393 174.373369 C 152.760061 118.000032 220.226732 87.000031 285.000069 99.426698 C 354.400074 112.720032 405.426744 169.893369 413.826744 238.426707 L 318.413405 238.426707 C 310.146738 211.066705 286.413403 190.426704 255.786734 190.426704 C 226.133399 190.426704 200.640064 211.080038 192.680064 238.426707 L 97.733391 238.426707 C 100.173391 215.533372 107.280058 194.173371 119.053393 174.373369 Z M 286.133403 256.093374 C 284.133403 294.853377 225.453399 295.493377 225.453399 256.093374 C 225.453399 216.693372 284.173403 217.333372 286.133403 256.093374 Z M 310.133404 405.893384 C 246.8534 428.573385 175.000063 408.733384 132.293393 356.813381 C 122.626726 344.960046 114.853392 331.960046 108.973392 317.840045 C 103.080058 303.706711 99.333391 289.040043 97.733391 273.813375 L 192.600064 273.813375 C 200.506731 301.213377 226.293399 321.813378 255.786734 321.813378 C 286.453403 321.813378 310.146738 301.133377 318.413405 273.813375 L 413.853411 273.813375 C 406.61341 333.000046 367.533408 385.320049 310.133404 405.893384 Z M 310.133404 405.893384 " stroke="#ffffff" stroke-width="1" stroke-opacity="1" stroke-miterlimit="4"/></svg>